<control> default_path=Sustain\
<region> sample=1_C_o.wav pitch_keycenter=c1 hikey=c#1
<region> sample=1_Eb_o.wav pitch_keycenter=d#1 lokey=d1 hikey=e1
<region> sample=1_Gb_o.wav pitch_keycenter=f#1 lokey=f1 hikey=g1
<region> sample=1_A_o.wav pitch_keycenter=a1 lokey=g#1 hikey=a#1
<region> sample=2_C_o.wav pitch_keycenter=c2 lokey=b1 hikey=c#2
<region> sample=2_Eb_o.wav pitch_keycenter=d#2 lokey=d2 hikey=e2
<region> sample=2_Gb_o.wav pitch_keycenter=f#2 lokey=f2 hikey=g2
<region> sample=2_A_o.wav pitch_keycenter=a2 lokey=g#2 hikey=a#2
<region> sample=3_C_o.wav pitch_keycenter=c3 lokey=b2 hikey=c#3
<region> sample=3_Eb_o.wav pitch_keycenter=d#3 lokey=d3 hikey=e3
<region> sample=3_Gb_o.wav pitch_keycenter=f#3 lokey=f3 hikey=g3
<region> sample=3_A_o.wav pitch_keycenter=a3 lokey=g#3 hikey=a#3
<region> sample=4_C_o.wav pitch_keycenter=c4 lokey=b3 hikey=c#4
<region> sample=4_Eb_o.wav pitch_keycenter=d#4 lokey=d4 hikey=e4
<region> sample=4_Gb_o.wav pitch_keycenter=f#4 lokey=f4 hikey=g4
<region> sample=4_A_o.wav pitch_keycenter=a4 lokey=g#4

